<svg xmlns="http://www.w3.org/2000/svg" version="1.1" xmlns:xlink="http://www.w3.org/1999/xlink" xmlns:svgjs="http://svgjs.dev/svgjs" width="1000" height="131" viewBox="0 0 1000 131"><g transform="matrix(1,0,0,1,-0.6060606060606233,-0.16719741797734855)"><svg viewBox="0 0 396 52" data-background-color="#ffffff" preserveAspectRatio="xMidYMid meet" height="131" width="1000" xmlns="http://www.w3.org/2000/svg" xmlns:xlink="http://www.w3.org/1999/xlink"><g id="tight-bounds" transform="matrix(1,0,0,1,0.2400000000000091,0.06636844072383496)"><svg viewBox="0 0 395.52 51.86726311855233" height="51.86726311855233" width="395.52"><g><svg viewBox="0 0 467.26253477915367 61.27535608017818" height="51.86726311855233" width="395.52"><g transform="matrix(1,0,0,1,0,8.468591180400892)"><svg viewBox="0 0 395.52 44.33817371937639" height="44.33817371937639" width="395.52"><g id="textblocktransform"><svg viewBox="0 0 395.52 44.33817371937639" height="44.33817371937639" width="395.52" id="textblock"><g><svg viewBox="0 0 395.52 44.33817371937639" height="44.33817371937639" width="395.52"><g transform="matrix(1,0,0,1,0,0)"><svg width="395.52" viewBox="1.7999999523162842 -37.45000076293945 336.7300109863281 37.75" height="44.33817371937639" data-palette-color="#2a160c"><path d="M14.4 0.3L14.4 0.3Q12.75 0.3 11.18 0.2 9.6 0.1 8.08-0.1 6.55-0.3 5.15-0.55 3.75-0.8 2.45-1.15L2.45-1.15 2.45-8.85Q4.15-8.7 6.13-8.6 8.1-8.5 10.13-8.45 12.15-8.4 13.9-8.4L13.9-8.4Q15.55-8.4 16.65-8.65 17.75-8.9 18.3-9.45 18.85-10 18.85-10.95L18.85-10.95 18.85-11.55Q18.85-12.65 18.07-13.2 17.3-13.75 16.25-13.75L16.25-13.75 13.6-13.75Q7.8-13.75 4.8-16.3 1.8-18.85 1.8-24.85L1.8-24.85 1.8-26.5Q1.8-32 5.1-34.73 8.4-37.45 14.6-37.45L14.6-37.45Q16.95-37.45 19.03-37.23 21.1-37 22.93-36.68 24.75-36.35 26.2-36L26.2-36 26.2-28.3Q23.9-28.5 21.03-28.63 18.15-28.75 15.8-28.75L15.8-28.75Q14.4-28.75 13.3-28.55 12.2-28.35 11.6-27.75 11-27.15 11-26L11-26 11-25.5Q11-24.25 11.8-23.6 12.6-22.95 14.25-22.95L14.25-22.95 17.55-22.95Q21.05-22.95 23.38-21.63 25.7-20.3 26.88-18.03 28.05-15.75 28.05-12.85L28.05-12.85 28.05-11.2Q28.05-6.45 26.4-3.95 24.75-1.45 21.7-0.58 18.65 0.3 14.4 0.3ZM49.7 0L40 0 40-28.45 30.65-28.45 30.65-37.15 59.05-37.15 59.05-28.45 49.7-28.45 49.7 0ZM72.3 0L62.59 0 62.59-37.15 78.44-37.15Q80.89-37.15 82.94-36.55 85-35.95 86.5-34.52 88-33.1 88.82-30.7 89.64-28.3 89.64-24.65L89.64-24.65Q89.64-22.35 89.25-20.65 88.84-18.95 88.17-17.78 87.5-16.6 86.57-15.8 85.64-15 84.59-14.4L84.59-14.4 91.05 0 81.19 0 76-12.8Q75.55-12.8 75.07-12.8 74.59-12.8 74.14-12.8 73.69-12.8 73.22-12.8 72.75-12.8 72.3-12.8L72.3-12.8 72.3 0ZM72.3-28.45L72.3-20.5 76.69-20.5Q77.5-20.5 78.09-20.73 78.69-20.95 79.12-21.45 79.55-21.95 79.75-22.73 79.94-23.5 79.94-24.6L79.94-24.6Q79.94-25.7 79.75-26.45 79.55-27.2 79.12-27.63 78.69-28.05 78.09-28.25 77.5-28.45 76.69-28.45L76.69-28.45 72.3-28.45ZM104.39 0.3L104.39 0.3Q103.19 0.3 101.52 0.05 99.84-0.2 98.27-1.05 96.69-1.9 95.64-3.68 94.59-5.45 94.59-8.55L94.59-8.55 94.59-27.95Q94.59-30.65 95.44-32.45 96.29-34.25 97.64-35.27 98.99-36.3 100.64-36.73 102.29-37.15 103.84-37.15L103.84-37.15Q108.04-37.15 111.07-37.02 114.09-36.9 116.32-36.75 118.54-36.6 120.24-36.4L120.24-36.4 120.24-28.2 106.84-28.2Q105.59-28.2 104.94-27.65 104.29-27.1 104.29-26L104.29-26 104.29-22.9 117.74-22.4 117.74-14.7 104.29-14.2 104.29-11.4Q104.29-10.5 104.57-9.93 104.84-9.35 105.34-9.08 105.84-8.8 106.44-8.8L106.44-8.8 120.24-8.8 120.24-0.6Q118.09-0.3 115.34-0.1 112.59 0.1 109.74 0.2 106.89 0.3 104.39 0.3ZM134.09 0.3L134.09 0.3Q132.89 0.3 131.22 0.05 129.54-0.2 127.97-1.05 126.39-1.9 125.34-3.68 124.29-5.45 124.29-8.55L124.29-8.55 124.29-27.95Q124.29-30.65 125.14-32.45 125.99-34.25 127.34-35.27 128.69-36.3 130.34-36.73 131.99-37.15 133.54-37.15L133.54-37.15Q137.74-37.15 140.77-37.02 143.79-36.9 146.02-36.75 148.24-36.6 149.94-36.4L149.94-36.4 149.94-28.2 136.54-28.2Q135.29-28.2 134.64-27.65 133.99-27.1 133.99-26L133.99-26 133.99-22.9 147.44-22.4 147.44-14.7 133.99-14.2 133.99-11.4Q133.99-10.5 134.27-9.93 134.54-9.35 135.04-9.08 135.54-8.8 136.14-8.8L136.14-8.8 149.94-8.8 149.94-0.6Q147.79-0.3 145.04-0.1 142.29 0.1 139.44 0.2 136.59 0.3 134.09 0.3ZM171.59 0L161.89 0 161.89-28.45 152.54-28.45 152.54-37.15 180.94-37.15 180.94-28.45 171.59-28.45 171.59 0ZM212.68 0L202.98 0 194.48-37.15 204.53-37.15 209.13-14.55 214.68-37.15 223.38-37.15 228.88-14.55 233.48-37.15 243.53-37.15 235.03 0 225.33 0 219.03-22.7 212.68 0ZM255.08 0.3L255.08 0.3Q253.88 0.3 252.21 0.05 250.53-0.2 248.96-1.05 247.38-1.9 246.33-3.68 245.28-5.45 245.28-8.55L245.28-8.55 245.28-27.95Q245.28-30.65 246.13-32.45 246.98-34.25 248.33-35.27 249.68-36.3 251.33-36.73 252.98-37.15 254.53-37.15L254.53-37.15Q258.73-37.15 261.76-37.02 264.78-36.9 267.01-36.75 269.23-36.6 270.93-36.4L270.93-36.4 270.93-28.2 257.53-28.2Q256.28-28.2 255.63-27.65 254.98-27.1 254.98-26L254.98-26 254.98-22.9 268.43-22.4 268.43-14.7 254.98-14.2 254.98-11.4Q254.98-10.5 255.26-9.93 255.53-9.35 256.03-9.08 256.53-8.8 257.13-8.8L257.13-8.8 270.93-8.8 270.93-0.6Q268.78-0.3 266.03-0.1 263.28 0.1 260.43 0.2 257.58 0.3 255.08 0.3ZM282.93 0L272.98 0 283.98-37.15 296.08-37.15 307.08 0 297.03 0 295.53-5.9 284.38-5.9 282.93 0ZM289.93-28.9L286.63-14.6 293.28-14.6 289.93-28.9ZM319.78 0L310.08 0 310.08-37.15 325.93-37.15Q328.38-37.15 330.43-36.55 332.48-35.95 333.98-34.52 335.48-33.1 336.3-30.7 337.13-28.3 337.13-24.65L337.13-24.65Q337.13-22.35 336.73-20.65 336.33-18.95 335.65-17.78 334.98-16.6 334.05-15.8 333.13-15 332.08-14.4L332.08-14.4 338.53 0 328.68 0 323.48-12.8Q323.03-12.8 322.55-12.8 322.08-12.8 321.63-12.8 321.18-12.8 320.7-12.8 320.23-12.8 319.78-12.8L319.78-12.8 319.78 0ZM319.78-28.45L319.78-20.5 324.18-20.5Q324.98-20.5 325.58-20.73 326.18-20.95 326.6-21.45 327.03-21.95 327.23-22.73 327.43-23.5 327.43-24.6L327.43-24.6Q327.43-25.7 327.23-26.45 327.03-27.2 326.6-27.63 326.18-28.05 325.58-28.25 324.98-28.45 324.18-28.45L324.18-28.45 319.78-28.45Z" opacity="1" transform="matrix(1,0,0,1,0,0)" fill="#2a160c" class="wordmark-text-0" data-fill-palette-color="primary" id="text-0"></path></svg></g></svg></g></svg></g></svg></g><g transform="matrix(1,0,0,1,405.98717869897547,0)"><svg viewBox="0 0 61.27535608017818 61.27535608017818" height="61.27535608017818" width="61.27535608017818"><g data-palette-color="#99592a"><rect width="16.748597328582036" height="61.27535608017818" fill="#99592a" stroke="transparent" data-fill-palette-color="accent" x="0" fill-opacity="1"></rect><rect width="16.748597328582036" height="61.27535608017818" fill="#99592a" stroke="transparent" data-fill-palette-color="accent" x="20.425118693392726" fill-opacity="0.75"></rect><rect width="16.748597328582036" height="61.27535608017818" fill="#99592a" stroke="transparent" data-fill-palette-color="accent" x="40.85023738678545" fill-opacity="0.5"></rect></g></svg></g></svg></g><defs></defs></svg><rect width="395.52" height="51.86726311855233" fill="none" stroke="none" visibility="hidden"></rect></g></svg></g></svg>